
<svg width="406px" height="398px" viewBox="0 0 406 398" version="1.1" xmlns="http://www.w3.org/2000/svg" xmlns:xlink="http://www.w3.org/1999/xlink">
    <defs>
        <filter x="-13.9%" y="-13.5%" width="127.7%" height="127.1%" filterUnits="objectBoundingBox" id="filter-1">
            <feOffset dx="0" dy="0" in="SourceAlpha" result="shadowOffsetOuter1"></feOffset>
            <feGaussianBlur stdDeviation="12.5" in="shadowOffsetOuter1" result="shadowBlurOuter1"></feGaussianBlur>
            <feColorMatrix values="0 0 0 0 0.333333333   0 0 0 0 0.250980392   0 0 0 0 0.501960784  0 0 0 0.12 0" type="matrix" in="shadowBlurOuter1" result="shadowMatrixOuter1"></feColorMatrix>
            <feMerge>
                <feMergeNode in="shadowMatrixOuter1"></feMergeNode>
                <feMergeNode in="SourceGraphic"></feMergeNode>
            </feMerge>
        </filter>
    </defs>
    <g id="1920" stroke="none" stroke-width="1" fill="none" fill-rule="evenodd">
        <g id="1920--1.-About-Main-Screen" transform="translate(-757.000000, -324.000000)" fill-rule="nonzero">
            <g id="Content-left" transform="translate(473.000000, 191.000000)">
                <g id="Maslo" filter="url(#filter-1)" transform="translate(487.000000, 332.000000) rotate(-90.000000) translate(-487.000000, -332.000000) translate(312.000000, 153.000000)">
                    <path d="M347.5,179.5 C347.5,277.254223 266.712665,356.5 169.233853,356.5 C71.7550412,356.5 0.675291591,290.529223 0.675291591,192.775 C0.675291591,166.224025 -1.43763466,127.763339 9.00806161,105.16 C37.0208272,44.5438876 98.2310439,2.5 169.233853,2.5 C266.712665,2.5 347.5,81.7457769 347.5,179.5 Z" id="Shape-1" fill="#E2ADF3"></path>
                    <path d="M348,179 C348,276.754223 268.750853,356 170.992092,356 C70.9825624,356 10.7193567,284.315 10.7193567,208.205 C10.7193567,161.3 0.100836624,124.13 10.719308,103.775 C41.4565661,44.8536017 100.132878,2 170.992092,2 C268.750853,2 348,81.2457769 348,179 Z" id="Shape-2" fill="#B882F2"></path>
                    <path d="M348,179 C348,276.754223 269.078279,356 171.723417,356 C72.1270865,356 25.4138768,291.395 25.4138768,215.285 C25.4138768,168.38 -7.19735173,140.945 12.112864,103.775 C42.7231282,44.8536017 101.156965,2 171.723417,2 C269.078279,2 348,81.2457769 348,179 Z" id="Shape-3" fill="#865FEF"></path>
                    <path d="M347,179 C347,276.754223 268.143854,356 170.869883,356 C71.3563069,356 38.7723202,297.59 38.7723202,221.48 C38.7723202,174.575 -12.6244532,155.105 11.3919496,103.775 C39.5303817,43.6350322 100.362065,2 170.869883,2 C268.143854,2 347,81.2457769 347,179 Z" id="Shape-4" fill="#5140EF"></path>
                    <path d="M347.5,178.113095 C347.5,276.080999 268.419789,355.5 170.86942,355.5 C71.0730808,355.5 48.9941488,288.979911 48.9941488,224.23369 C48.9941488,177.22616 -12.8266273,168.356815 10.9381924,102.72366 C39.1565781,42.4521832 100.160771,2.5 170.86942,2.5 C268.419789,2.5 347.5,80.1451902 347.5,178.113095 Z" id="Shape-5" fill="#1D21D5"></path>
                    <path d="M344.5,179.113095 C344.5,277.080999 268.920839,356.5 171.330031,356.5 C66.1913305,356.5 65.3077506,272.24122 61.7739179,227.894494 C59.0905794,194.228609 -12.441922,169.356815 11.3327005,103.72366 C39.562784,43.4521832 100.592557,3.5 171.330031,3.5 C268.920839,3.5 344.5,81.1451902 344.5,179.113095 Z" id="Shape-6" fill="#1B19A5"></path>
                    <path d="M344.5,179.113095 C344.5,277.080999 268.866403,356.5 171.205304,356.5 C71.2956862,356.5 73.4804209,270.467351 71.2956862,233.216101 C69.1114384,195.964851 -13.5831807,167.582946 11.0927332,103.72366 C39.3431498,43.4521832 100.41688,3.5 171.205304,3.5 C268.866403,3.5 344.5,81.1451902 344.5,179.113095 Z" id="Shape-7" fill="#1A1485"></path>
                    <path d="M349.5,178.103045 C349.5,277.181067 271.330055,357.5 172.699427,357.5 C74.0687999,357.5 89.119884,274.194083 80.7274097,229.231177 C72.690953,186.175908 -10.3518595,173.618121 10.9972929,101.859339 C39.5281649,40.9048991 101.208253,0.5 172.699427,0.5 C271.330055,0.5 349.5,79.0250224 349.5,178.103045 Z" id="Shape-8" fill="#231861"></path>
                </g>
            </g>
        </g>
    </g>
</svg>