<?xml version="1.0" encoding="UTF-8"?>
<svg width="160px" height="151px" viewBox="0 0 160 151" version="1.1" xmlns="http://www.w3.org/2000/svg" xmlns:xlink="http://www.w3.org/1999/xlink">
    <!-- Generator: Sketch 52.3 (67297) - http://www.bohemiancoding.com/sketch -->
    <title>Maslo</title>
    <desc>Created with Sketch.</desc>
    <defs>
        <filter x="-35.7%" y="-35.7%" width="171.3%" height="171.3%" filterUnits="objectBoundingBox" id="filter-1">
            <feOffset dx="0" dy="0" in="SourceAlpha" result="shadowOffsetOuter1"></feOffset>
            <feGaussianBlur stdDeviation="12.5" in="shadowOffsetOuter1" result="shadowBlurOuter1"></feGaussianBlur>
            <feColorMatrix values="0 0 0 0 0.333333333   0 0 0 0 0.250980392   0 0 0 0 0.501960784  0 0 0 0.12 0" type="matrix" in="shadowBlurOuter1" result="shadowMatrixOuter1"></feColorMatrix>
            <feMerge>
                <feMergeNode in="shadowMatrixOuter1"></feMergeNode>
                <feMergeNode in="SourceGraphic"></feMergeNode>
            </feMerge>
        </filter>
        <linearGradient x1="100%" y1="0%" x2="1.11022302e-14%" y2="100%" id="linearGradient-2">
            <stop stop-color="#7C55F2" offset="0%"></stop>
            <stop stop-color="#B479F2" offset="51.1380058%"></stop>
            <stop stop-color="#FABBEA" offset="100%"></stop>
        </linearGradient>
        <linearGradient x1="0%" y1="0%" x2="100%" y2="100%" id="linearGradient-3">
            <stop stop-color="#7C55F2" offset="0%"></stop>
            <stop stop-color="#B479F2" offset="51.1380058%"></stop>
            <stop stop-color="#FABBEA" offset="100%"></stop>
        </linearGradient>
    </defs>
    <g id="320" stroke="none" stroke-width="1" fill="none" fill-rule="evenodd">
        <g id="320---About-All-page" transform="translate(-81.000000, -2629.000000)" fill-rule="nonzero">
            <g id="Block-3" transform="translate(20.000000, 1319.000000)">
                <g id="3-step-" transform="translate(4.000000, 1248.000000)">
                    <g id="Maslo" filter="url(#filter-1)" transform="translate(136.000000, 136.000000) rotate(-90.000000) translate(-136.000000, -136.000000) translate(68.000000, 68.000000)">
                        <path d="M113.5,68 C113.5,94.7857617 91.1496135,116.5 64.1814119,116.5 C37.2132102,116.5 17.5484957,98.4232617 17.5484957,71.6375 C17.5484957,64.3622328 16.9639397,53.8235702 19.8538153,47.63 C27.6037447,31.0205003 44.5379833,19.5 64.1814119,19.5 C91.1496135,19.5 113.5,41.2142383 113.5,68 Z" id="Shape" fill="url(#linearGradient-2)"></path>
                        <path d="M114,68.5 C114,95.2857617 91.9863481,117 64.8311366,117 C37.0507118,117 20.3109324,97.3575 20.3109324,76.5025 C20.3109324,63.65 17.3613435,53.465 20.3109189,47.8875 C28.8490462,31.7423711 45.1480218,20 64.8311366,20 C91.9863481,20 114,41.7142383 114,68.5 Z" id="Shape" fill="url(#linearGradient-3)"></path>
                        <path d="M114.5,68 C114.5,94.7857617 92.3465343,116.5 65.0188538,116.5 C37.0619892,116.5 23.9495093,98.7975 23.9495093,77.9425 C23.9495093,65.09 14.7954802,57.5725 20.2158916,47.3875 C28.8082465,31.2423711 45.210727,19.5 65.0188538,19.5 C92.3465343,19.5 114.5,41.2142383 114.5,68 Z" id="Shape" fill="url(#linearGradient-2)"></path>
                        <path d="M114.5,68 C114.5,94.7857617 92.3649415,116.5 65.0599673,116.5 C37.1263317,116.5 27.9799495,100.495 27.9799495,79.64 C27.9799495,66.7875 13.5527851,61.4525 20.2942315,47.3875 C28.1927387,30.9084693 45.2682989,19.5 65.0599673,19.5 C92.3649415,19.5 114.5,41.2142383 114.5,68 Z" id="Shape" fill="url(#linearGradient-3)"></path>
                        <path d="M114,68.2562895 C114,95.1766486 92.0332746,117 64.9359499,117 C37.2147447,117 31.081708,98.7211086 31.081708,80.9296542 C31.081708,68.012571 13.9092702,65.5753854 20.510609,47.5402125 C28.3490495,30.978362 45.2946585,20 64.9359499,20 C92.0332746,20 114,41.3359305 114,68.2562895 Z" id="Shape" fill="url(#linearGradient-2)"></path>
                        <path d="M113.690164,61.5231108 C113.742738,88.4554058 92.6515033,110.247455 65.3626316,110.194542 C35.9631771,110.137537 35.6708881,86.9735295 34.6589399,74.7802828 C33.8905433,65.5237609 13.8748894,58.6474873 20.4876563,40.6172083 C28.3491608,24.0633207 45.393197,13.1131809 65.1731936,13.1515342 C92.4620653,13.2044471 113.637589,34.5908158 113.690164,61.5231108 Z" id="Shape" fill="#1D21D5" transform="translate(66.420154, 61.673036) rotate(-195.000000) translate(-66.420154, -61.673036) "></path>
                        <path d="M117.5,74.7512645 C117.5,102.226683 96.0182682,124.5 68.2802047,124.5 C39.9035085,124.5 40.5240249,100.371863 39.9035085,89.9246289 C39.2831304,79.4773944 15.7959013,71.5175967 22.8044449,53.608052 C30.8282319,36.7047199 48.1746169,25.5 68.2802047,25.5 C96.0182682,25.5 117.5,47.2758465 117.5,74.7512645 Z" id="Shape" fill="#5140EF"></path>
                        <path d="M116.780339,67.9822056 C116.90573,95.8325568 94.7120782,118.309908 66.5810681,118.183847 C38.4500579,118.057785 42.6374346,94.6601332 40.1868646,82.010552 C37.8402508,69.8976533 14.1392384,66.2615817 20.1375372,46.1178232 C28.1978494,29.0202919 45.7388476,17.7415054 66.1292578,17.8328797 C94.2602679,17.9589414 116.654948,40.1318545 116.780339,67.9822056 Z" id="Shape" fill="#231861" transform="translate(67.974444, 68.008351) rotate(-30.000000) translate(-67.974444, -68.008351) "></path>
                    </g>
                </g>
            </g>
        </g>
    </g>
</svg>