<?xml version="1.0" encoding="UTF-8"?>
<svg width="130px" height="132px" viewBox="0 0 130 132" version="1.1" xmlns="http://www.w3.org/2000/svg" xmlns:xlink="http://www.w3.org/1999/xlink">
    <!-- Generator: Sketch 52.3 (67297) - http://www.bohemiancoding.com/sketch -->
    <title>Maslo</title>
    <desc>Created with Sketch.</desc>
    <defs>
        <filter x="-44.1%" y="-44.1%" width="188.2%" height="188.2%" filterUnits="objectBoundingBox" id="filter-1">
            <feOffset dx="0" dy="0" in="SourceAlpha" result="shadowOffsetOuter1"></feOffset>
            <feGaussianBlur stdDeviation="12.5" in="shadowOffsetOuter1" result="shadowBlurOuter1"></feGaussianBlur>
            <feColorMatrix values="0 0 0 0 0.333333333   0 0 0 0 0.250980392   0 0 0 0 0.501960784  0 0 0 0.12 0" type="matrix" in="shadowBlurOuter1" result="shadowMatrixOuter1"></feColorMatrix>
            <feMerge>
                <feMergeNode in="shadowMatrixOuter1"></feMergeNode>
                <feMergeNode in="SourceGraphic"></feMergeNode>
            </feMerge>
        </filter>
        <linearGradient x1="100%" y1="0%" x2="1.11022302e-14%" y2="100%" id="linearGradient-2">
            <stop stop-color="#7C55F2" offset="0%"></stop>
            <stop stop-color="#B479F2" offset="51.1380058%"></stop>
            <stop stop-color="#FABBEA" offset="100%"></stop>
        </linearGradient>
        <linearGradient x1="0%" y1="0%" x2="100%" y2="100%" id="linearGradient-3">
            <stop stop-color="#7C55F2" offset="0%"></stop>
            <stop stop-color="#B479F2" offset="51.1380058%"></stop>
            <stop stop-color="#FABBEA" offset="100%"></stop>
        </linearGradient>
    </defs>
    <g id="320" stroke="none" stroke-width="1" fill="none" fill-rule="evenodd">
        <g id="320---About-All-page" transform="translate(-96.000000, -1477.000000)" fill-rule="nonzero">
            <g id="Block-3" transform="translate(20.000000, 1319.000000)">
                <g id="1-step" transform="translate(3.000000, 88.000000)">
                    <g id="Maslo" filter="url(#filter-1)" transform="translate(137.000000, 135.500000) rotate(-90.000000) translate(-137.000000, -135.500000) translate(82.000000, 80.500000)">
                        <path d="M94,56.4864865 C94,78.3788152 75.3746779,96.1261261 52.9011766,96.1261261 C30.4276752,96.1261261 14.040413,81.3517882 14.040413,59.4594595 C14.040413,53.5132951 13.5532831,44.8999181 15.9615128,39.8378378 C22.4197873,26.2626918 36.5316528,16.8468468 52.9011766,16.8468468 C75.3746779,16.8468468 94,34.5941578 94,56.4864865 Z" id="Shape" fill="url(#linearGradient-2)"></path>
                        <path d="M95,55.4954955 C95,77.3878242 76.9256332,95.1351351 54.6297753,95.1351351 C31.8205844,95.1351351 18.0763445,79.0810811 18.0763445,62.036036 C18.0763445,51.5315315 15.6545768,43.2072072 18.0763334,38.6486486 C25.0865853,25.4530385 38.4689021,15.8558559 54.6297753,15.8558559 C76.9256332,15.8558559 95,33.6031668 95,55.4954955 Z" id="Shape" fill="url(#linearGradient-3)"></path>
                        <path d="M94.5,55 C94.5,76.8923287 76.2695439,94.6396396 53.7811401,94.6396396 C30.7749703,94.6396396 19.984492,80.1711712 19.984492,63.1261261 C19.984492,52.6216216 12.4514889,46.4774775 16.9120358,38.1531532 C23.9828279,24.957543 37.4807025,15.3603604 53.7811401,15.3603604 C76.2695439,15.3603604 94.5,33.1076713 94.5,55 Z" id="Shape" fill="url(#linearGradient-2)"></path>
                        <path d="M94.5,55 C94.5,76.8923287 76.2846914,94.6396396 53.8149731,94.6396396 C30.8279188,94.6396396 23.3012085,81.5585586 23.3012085,64.5135135 C23.3012085,54.009009 11.4288544,49.6486486 16.976503,38.1531532 C23.4763162,24.684641 37.5280793,15.3603604 53.8149731,15.3603604 C76.2846914,15.3603604 94.5,33.1076713 94.5,55 Z" id="Shape" fill="url(#linearGradient-3)"></path>
                        <path d="M95,55.2963079 C95,77.2986447 76.9641623,95.1351351 54.7158325,95.1351351 C31.955264,95.1351351 26.9197182,80.1955749 26.9197182,65.654403 C26.9197182,55.0971138 12.8202429,53.1051724 18.2402895,38.3648064 C24.6760617,24.8286045 38.5892986,15.8558559 54.7158325,15.8558559 C76.9641623,15.8558559 95,33.2939712 95,55.2963079 Z" id="Shape" fill="url(#linearGradient-2)"></path>
                        <path d="M94,55.2963079 C94,77.2986447 76.5586552,95.1351351 54.0376996,95.1351351 C29.7749224,95.1351351 29.5710194,76.2116922 28.7555195,66.2519854 C28.1362875,58.6910589 11.6287872,53.1051724 17.1152386,38.3648064 C23.6298732,24.8286045 37.7136671,15.8558559 54.0376996,15.8558559 C76.5586552,15.8558559 94,33.2939712 94,55.2963079 Z" id="Shape" fill="url(#linearGradient-3)"></path>
                        <path d="M96,57.2782899 C96,79.2806267 78.5460929,97.1171171 56.0089163,97.1171171 C32.9528507,97.1171171 33.4570202,77.7952859 32.9528507,69.4291322 C32.4487935,61.0629785 13.3654198,54.6887662 19.0598615,40.3467884 C25.5791884,26.8105865 39.6731262,17.8378378 56.0089163,17.8378378 C78.5460929,17.8378378 96,35.2759532 96,57.2782899 Z" id="Shape" fill="url(#linearGradient-3)"></path>
                        <path d="M94.4060765,55.0713785 C94.6098587,77.4449976 76.8496333,95.420905 54.2322982,95.2170469 C31.6149632,95.0131889 34.8950376,76.2323069 32.8780509,66.0615188 C30.9466274,56.3222457 11.8779601,53.3148292 16.6260167,37.1545176 C23.0431608,23.4488667 37.1041339,14.4521913 53.4980258,14.5999552 C76.1153608,14.8038133 94.2022942,32.6977594 94.4060765,55.0713785 Z" id="Shape" fill="#231861" transform="translate(55.138504, 54.908463) rotate(-30.000000) translate(-55.138504, -54.908463) "></path>
                    </g>
                </g>
            </g>
        </g>
    </g>
</svg>